<svg width="20" height="20" viewBox="0 0 40 40" xmlns="http://www.w3.org/2000/svg"
  fill-rule="evenodd"
  clip-rule="evenodd"
  fill="#fff"
  stroke-linecap="round"
  stroke-miterlimit="5"
  stroke-width="2px"
  stroke="#000">
  <defs>
    <filter id="a" width="300%" height="300%" x="-150%" y="-150%">
      <feDropShadow dx="0" dy="2" flood-color="#000" flood-opacity=".25" stdDeviation="2"/>
    </filter>
  </defs>
  <g filter="url(#a)">
    <path id="grabbing" d="M10.548,13.952c-1.756,-0.173 -2.715,1.279 -3.445,2.638c-0.197,1.915 0.014,3.128 0.424,4.91c-0,0 2.168,9.267 8.43,10.5c6.487,1.277 8.043,0 8.043,0c0,0 6.238,-3.401 7.271,-8.4c0.525,-2.538 0.729,-6.6 0.729,-6.6l0,-2.5c-0.479,-1.475 -1.514,-1.909 -3,-1.5l-1.535,1.087l-0.047,-2.107c-0.578,-1.577 -2.203,-2.063 -3.418,-1.48l-1.487,2.174l-1.013,-2.674c-0.361,-1.067 -3.12,-0.996 -3.5,0l-0.706,2.319l-1.346,-2.4c-1.635,-0.766 -3.945,0.036 -3.948,2.081l1.039,6l-2.491,-4.048Z"/>
</g>
</svg>
