<svg width="20" height="20" viewBox="0 0 40 40" version="1.1" xmlns="http://www.w3.org/2000/svg"
  xmlns:xlink="http://www.w3.org/1999/xlink" xml:space="preserve"
  xmlns:serif="http://www.serif.com/"
  style="fill-rule:evenodd;clip-rule:evenodd;stroke-linecap:round;stroke-miterlimit:5;">
    <path d="M19,7.598l-4.098,-2.366c-0.478,-0.276 -0.642,-0.888 -0.366,-1.366c0.276,-0.478 0.888,-0.642 1.366,-0.366l4.098,2.366l4.098,-2.366c0.478,-0.276 1.09,-0.112 1.366,0.366c0.276,0.478 0.112,1.09 -0.366,1.366l-4.098,2.366l0,24.804l4.098,2.366c0.478,0.276 0.642,0.888 0.366,1.366c-0.276,0.478 -0.888,0.642 -1.366,0.366l-4.098,-2.366l-4.098,2.366c-0.478,0.276 -1.09,0.112 -1.366,-0.366c-0.276,-0.478 -0.112,-1.09 0.366,-1.366l4.098,-2.366l0,-24.804Z"/>
    <path d="M18,8.175l-3.598,-2.077c-0.956,-0.552 -1.284,-1.776 -0.732,-2.732c0.552,-0.956 1.776,-1.284 2.732,-0.732l3.598,2.077l3.598,-2.077c0.956,-0.552 2.18,-0.224 2.732,0.732c0.552,0.956 0.224,2.18 -0.732,2.732l-3.598,2.077l0,23.65l3.598,2.077c0.956,0.552 1.284,1.776 0.732,2.732c-0.552,0.956 -1.776,1.284 -2.732,0.732l-3.598,-2.077l-3.598,2.077c-0.956,0.552 -2.18,0.224 -2.732,-0.732c-0.552,-0.956 -0.224,-2.18 0.732,-2.732l3.598,-2.077l-0,-23.65Zm1,-0.577l0,24.804l-4.098,2.366c-0.478,0.276 -0.642,0.888 -0.366,1.366c0.276,0.478 0.888,0.642 1.366,0.366l4.098,-2.366l4.098,2.366c0.478,0.276 1.09,0.112 1.366,-0.366c0.276,-0.478 0.112,-1.09 -0.366,-1.366l-4.098,-2.366l0,-24.804l4.098,-2.366c0.478,-0.276 0.642,-0.888 0.366,-1.366c-0.276,-0.478 -0.888,-0.642 -1.366,-0.366l-4.098,2.366l-4.098,-2.366c-0.478,-0.276 -1.09,-0.112 -1.366,0.366c-0.276,0.478 -0.112,1.09 0.366,1.366l4.098,2.366Z" style="fill:#fff;"/>
</svg>