<svg width="40" height="40" viewBox="0 0 40 40" version="1.1" xmlns="http://www.w3.org/2000/svg"
  xmlns:xlink="http://www.w3.org/1999/xlink" xml:space="preserve"
  style="fill-rule:evenodd;clip-rule:evenodd;stroke-linecap:round;stroke-miterlimit:5;">
  <defs>
    <filter id="a" width="300%" height="300%" x="-150%" y="-150%"><feDropShadow dx="0" dy="2" flood-color="#000" flood-opacity=".25" stdDeviation="2"/></filter>
    <linearGradient id="_Linear1" x1="0" y1="0" x2="1" y2="0" gradientUnits="userSpaceOnUse" gradientTransform="matrix(1.10218e-15,18,-18,1.10218e-15,16,16.9653)"><stop offset="0" style="stop-color:#fff;stop-opacity:1"/><stop offset="1" style="stop-color:#98999b;stop-opacity:1"/></linearGradient>
  </defs>
  <g filter="url(#a)">
    <path d="M7.316,3.316c-0.053,-0.053 -0.133,-0.069 -0.202,-0.041c-0.069,0.029 -0.114,0.097 -0.114,0.171c-0,1.845 -0,8.944 -0,12.486c0,0.377 0.216,0.721 0.555,0.885c0.34,0.164 0.743,0.119 1.038,-0.115c1.464,-1.161 3.407,-2.702 3.407,-2.702l3.519,-0c0.416,-0 0.791,-0.25 0.95,-0.634c0.159,-0.384 0.071,-0.826 -0.223,-1.12c-2.685,-2.685 -7.637,-7.637 -8.93,-8.93Z" style="stroke:#fff;stroke-width:1px;"/>
    <path d="M25,25.965c0,4.968 -4.033,9 -9,9c-4.967,0 -9,-4.032 -9,-9c0,-4.967 4.033,-9 9,-9c4.967,0 9,4.033 9,9Z" style="fill:url(#_Linear1);"/>
    <path d="M16,20.5c3.311,0 6,2.689 6,6c-0,3.311 -2.689,6 -6,6c-3.311,0 -6,-2.689 -6,-6c-0,-3.311 2.689,-6 6,-6Zm3.487,8.108c0.36,-0.601 0.567,-1.303 0.567,-2.054c0,-2.207 -1.792,-4 -4,-4c-0.75,0 -1.453,0.207 -2.053,0.568l5.486,5.486Zm-6.891,-4.063c-0.344,0.59 -0.542,1.277 -0.542,2.009c0,2.208 1.793,4 4,4c0.733,0 1.419,-0.197 2.01,-0.541l-5.468,-5.468Z"/>
    <path d="M16,19.965c3.311,0 6,2.689 6,6c-0,3.312 -2.689,6 -6,6c-3.311,0 -6,-2.688 -6,-6c-0,-3.311 2.689,-6 6,-6Zm3.487,8.108c0.36,-0.6 0.567,-1.303 0.567,-2.053c0,-2.208 -1.792,-4 -4,-4c-0.75,-0 -1.453,0.207 -2.053,0.567l5.486,5.486Zm-6.891,-4.063c-0.344,0.591 -0.542,1.277 -0.542,2.01c0,2.207 1.793,4 4,4c0.733,-0 1.419,-0.198 2.01,-0.542l-5.468,-5.468Z" style="fill:#fff;"/>
  </g>
</svg>