<svg width="20" height="22" viewBox="0 0 40 44" xmlns="http://www.w3.org/2000/svg"
  fill-rule="evenodd"
  clip-rule="evenodd"
  fill="#fff"
  stroke-linecap="round"
  stroke-miterlimit="5"
  stroke-width="2px"
  stroke="#000">
  <defs>
    <filter id="a" width="300%" height="300%" x="-150%" y="-150%">
      <feDropShadow dx="0" dy="2" flood-color="#000" flood-opacity=".5" stdDeviation="2"/>
    </filter>
  </defs>
  <g filter="url(#a)">
    <path id="pointer" d="M5.472,17.157c-0.009,0.084 -0.002,0.17 0.022,0.251c0.252,0.898 2.506,8.592 2.506,8.592c0.032,-0.037 1.946,5.538 7,9c3.62,2.479 9.169,1.978 12,0c2.323,-1.623 3.933,-2.681 5.134,-6.7c0.619,-2.071 0.427,-4.987 0.48,-6.727c0.038,-1.236 -0.79,-5.068 -0.791,-5.074c-0,0 -0,-0 -0,-0c-0.194,-0.961 -0.749,-1.597 -1.409,-1.895c-0.58,-0.274 -1.261,-0.23 -1.8,0.117c-0.54,0.347 -0.863,0.947 -0.855,1.588c-0.033,0.55 -0.024,1.257 -0.016,1.873c-0,0.005 0.004,0.009 0.009,0.009c0.006,0 0.01,-0.004 0.01,-0.009c0.001,-1.235 0.003,-2.956 0.004,-3.749c0,-0.654 -0.295,-1.273 -0.803,-1.685c-0.908,-0.721 -2.175,-0.792 -3.231,0.068c-0.483,0.37 -0.766,0.943 -0.766,1.551c-0.054,1.123 -0.055,3.393 -0.055,3.393c0,0 0.039,-3.376 0.056,-4.894c0.012,-1.079 -0.745,-2.013 -1.802,-2.226c-0.303,-0.012 -0.606,-0.013 -0.9,0.038c-1.047,0.206 -1.806,1.12 -1.817,2.187c-0.064,1.36 -0.095,4.501 -0.095,4.501c0,-0 -0.075,-11.221 -0.092,-13.747c-0.006,-0.889 -0.556,-1.684 -1.386,-2.003c-0.725,-0.279 -1.592,-0.269 -2.309,0.018c-0.827,0.326 -1.37,1.125 -1.369,2.014c-0.001,3.071 0.01,18.267 0.01,18.267c0.012,0.554 0.006,0.831 -0.599,0.264c0,0 -2.272,-4.306 -3.359,-6.366c-0.238,-0.45 -0.646,-0.787 -1.133,-0.934c-0.488,-0.147 -1.014,-0.093 -1.461,0.151c-0.587,0.361 -1.076,0.979 -1.183,2.127Z" />
</g>
</svg>
