<svg width="20" height="20" viewBox="0 0 40 40" version="1.1" xmlns="http://www.w3.org/2000/svg" xmlns:xlink="http://www.w3.org/1999/xlink" xml:space="preserve" xmlns:serif="http://www.serif.com/" style="fill-rule:evenodd;clip-rule:evenodd;stroke-linecap:round;stroke-miterlimit:5;">
    <defs><filter id="a" width="300%" height="300%" x="-150%" y="-150%"><feDropShadow dx="0" dy="2" flood-color="#000" flood-opacity=".25" stdDeviation="2"/></filter></defs><g filter="url(#a)">
    <path id="default" d="M8.695,3.658c-0.287,-0.281 -0.715,-0.363 -1.086,-0.207c-0.371,0.155 -0.612,0.518 -0.613,0.92c-0.007,4.792 -0.025,15.745 -0.035,22.482c-0.002,0.984 0.578,1.876 1.479,2.273c0.9,0.397 1.95,0.224 2.675,-0.441c1.293,-1.184 2.385,-2.185 2.385,-2.185c-0,-0 1.731,3.981 3.156,7.259c0.404,0.928 1.252,1.588 2.251,1.751c0.999,0.164 2.013,-0.192 2.692,-0.944c0.061,-0.068 0.122,-0.135 0.181,-0.201c0.755,-0.837 0.974,-2.028 0.564,-3.078c-1.019,-2.611 -2.844,-7.287 -2.844,-7.287l3.867,0c1.017,-0 1.932,-0.615 2.315,-1.556c0.384,-0.941 0.16,-2.021 -0.567,-2.732c-5.011,-4.899 -12.964,-12.676 -16.42,-16.054Z" style="stroke:#fff;stroke-width:2px;"/>
</g>
</svg>
