<svg xmlns="http://www.w3.org/2000/svg" xml:space="preserve" width="18" height="25" style="fill-rule:evenodd;clip-rule:evenodd;stroke-linecap:round;stroke-linejoin:round;stroke-miterlimit:5" viewBox="0 0 36 50">
  <defs>
    <filter id="a" width="200%" height="200%" x="-50%" y="-50%">
      <feDropShadow dx="0" dy="2" flood-color="#000" flood-opacity=".5" stdDeviation="1"/>
    </filter>
  </defs>
  <path d="M0 0h36v50H0z" style="fill:none"/>
  <g>
    <path d="M1.004 16.744a.6.6 0 0 0 .022.251c.252.898 2.506 8.592 2.506 8.592.032-.037 1.946 5.538 7 9 3.62 2.479 9.169 1.978 12 0 2.323-1.623 3.933-2.681 5.134-6.7.619-2.071.427-4.987.48-6.727.038-1.236-.79-5.068-.791-5.074q0 0 0 0c-.194-.961-.749-1.597-1.409-1.895a1.86 1.86 0 0 0-2.655 1.705c-.033.55-.024 1.257-.016 1.873q0 .008.009.009.01 0 .01-.009l.004-3.749a2.16 2.16 0 0 0-.803-1.684c-.908-.722-2.175-.793-3.231.067-.483.37-.766.943-.766 1.551-.053 1.123-.055 3.393-.055 3.393l.056-4.894a2.245 2.245 0 0 0-1.802-2.226 4.3 4.3 0 0 0-.9.038 2.254 2.254 0 0 0-1.817 2.187c-.063 1.36-.095 4.501-.095 4.501l-.092-13.747a2.16 2.16 0 0 0-1.386-2.003 3.25 3.25 0 0 0-2.309.018 2.16 2.16 0 0 0-1.369 2.014c-.001 3.071.01 18.267.01 18.267.012.554.006.831-.599.264L4.781 15.4a1.903 1.903 0 0 0-2.594-.783c-.586.361-1.076.979-1.183 2.127" style="fill:#fff;stroke:#000;stroke-width:2px"/>
  </g>
  <g filter="url(#a)">
    <path d="M22.532,42.264l0,-2l10,-0l0,2l-10,-0" style="fill:none;stroke:#fff;stroke-width:4px;stroke-miterlimit:10;"/>
    <path d="M22.532,42.264l0,-2l10,-0l0,2l-10,-0"/>
  </g>
</svg>