<svg width="30" height="30" viewBox="0 0 40 40" xmlns="http://www.w3.org/2000/svg"
  fill-rule="evenodd"
  clip-rule="evenodd"
  stroke-linecap="round"
  stroke-miterlimit="5"
  stroke-width="1.5px"
  stroke="#fff">
  <defs>
    <filter id="a" width="300%" height="300%" x="-150%" y="-150%">
      <feDropShadow dx="0" dy="2" flood-color="#000" flood-opacity=".25" stdDeviation="2"/>
    </filter>
  </defs>
  <g filter="url(#a)">
    <path d="M19.132,7.591c0.173,-0.318 0.506,-0.515 0.868,-0.515c0.362,-0 0.695,0.197 0.868,0.515c1.162,2.131 3.209,5.884 4.335,7.947c0.167,0.307 0.16,0.678 -0.018,0.978c-0.178,0.3 -0.501,0.484 -0.85,0.484c-2.288,-0 -6.382,-0 -8.67,-0c-0.349,-0 -0.672,-0.184 -0.85,-0.484c-0.178,-0.3 -0.185,-0.671 -0.018,-0.978c1.126,-2.063 3.173,-5.816 4.335,-7.947Z" />
    <path d="M20.868,32.409c-0.173,0.318 -0.506,0.515 -0.868,0.515c-0.362,0 -0.695,-0.197 -0.868,-0.515c-1.162,-2.131 -3.209,-5.884 -4.335,-7.947c-0.167,-0.307 -0.16,-0.678 0.018,-0.978c0.178,-0.3 0.501,-0.484 0.85,-0.484c2.288,0 6.382,0 8.67,0c0.349,0 0.672,0.184 0.85,0.484c0.178,0.3 0.185,0.671 0.018,0.978c-1.126,2.063 -3.173,5.816 -4.335,7.947Z" />
  </g>
</svg>