<svg
  width="100%"
  height="100%"
  viewBox="0 0 734 226"
  xmlns="http://www.w3.org/2000/svg"
  style="fill-rule:evenodd;clip-rule:evenodd;"
>
  <rect id="iterating-logo-muted-padded" x="0" y="0" width="734" height="226" fill="none"/>
  <g fill="#737373" fill-rule="nonzero">
    <path d="M90.05,84.378c-3.313,-0 -6.129,-1.178 -8.447,-3.533c-2.318,-2.356 -3.477,-5.164 -3.477,-8.424c0,-3.283 1.165,-6.118 3.494,-8.505c2.33,-2.386 5.139,-3.579 8.43,-3.579c2.188,-0 4.194,0.548 6.019,1.645c1.824,1.098 3.297,2.55 4.417,4.357c1.121,1.807 1.681,3.834 1.681,6.082c0,3.26 -1.185,6.068 -3.557,8.424c-2.371,2.355 -5.225,3.533 -8.56,3.533Z"/>
    <path d="M79.999,145.786l0,-43.814l20.306,-11.717l0,55.531l-20.306,0Z"/>
    <path d="M113.293,80.003l11.851,-0l0,-27.003l20.122,0l0,27.003l15.612,-0l0,16.937l-15.612,0l0,23.757c0,3.17 0.516,5.618 1.548,7.345c1.032,1.727 2.638,2.59 4.818,2.59c1.681,0 3.05,-0.335 4.11,-1.004c1.06,-0.67 1.696,-1.124 1.91,-1.361l7.23,14.581c-0.359,0.329 -1.4,0.891 -3.123,1.686c-1.723,0.795 -3.93,1.523 -6.622,2.184c-2.691,0.661 -5.727,0.991 -9.108,0.991c-6.022,0 -11.009,-1.745 -14.959,-5.235c-3.95,-3.49 -5.926,-8.922 -5.926,-16.296l0,-29.238l-11.851,0l0,-16.937Z"/>
    <path d="M190.27,117.422c0.143,2.985 0.938,5.656 2.386,8.012c1.448,2.356 3.539,4.201 6.272,5.533c2.734,1.333 6.047,1.999 9.94,1.999c3.472,0 6.527,-0.429 9.166,-1.286c2.638,-0.858 4.871,-1.912 6.699,-3.161c1.829,-1.249 3.2,-2.456 4.114,-3.619l8.431,12.438c-1.514,1.887 -3.505,3.62 -5.974,5.199c-2.469,1.578 -5.614,2.835 -9.433,3.77c-3.82,0.935 -8.584,1.402 -14.294,1.402c-7.217,0 -13.553,-1.421 -19.007,-4.264c-5.455,-2.843 -9.709,-6.926 -12.762,-12.251c-3.054,-5.324 -4.581,-11.672 -4.581,-19.043c0,-6.41 1.365,-12.193 4.095,-17.348c2.731,-5.154 6.697,-9.23 11.899,-12.228c5.203,-2.997 11.466,-4.495 18.79,-4.495c6.891,-0 12.867,1.323 17.93,3.97c5.063,2.647 8.978,6.504 11.747,11.57c2.769,5.066 4.154,11.261 4.154,18.585c-0,0.427 -0.014,1.299 -0.04,2.617c-0.027,1.317 -0.094,2.184 -0.201,2.6l-49.331,-0Zm30.502,-12.589c-0.054,-1.721 -0.575,-3.564 -1.563,-5.529c-0.988,-1.965 -2.53,-3.643 -4.625,-5.035c-2.095,-1.391 -4.855,-2.087 -8.28,-2.087c-3.472,-0 -6.327,0.669 -8.564,2.007c-2.238,1.339 -3.911,2.977 -5.021,4.915c-1.11,1.938 -1.754,3.848 -1.932,5.729l29.985,-0Z"/>
    <path d="M272.477,145.786l-20.285,0l0,-65.783l20.285,-0l-0,10.633l-0.401,-0c0.406,-1.289 1.447,-2.917 3.121,-4.884c1.674,-1.967 4.005,-3.737 6.992,-5.311c2.988,-1.574 6.612,-2.361 10.872,-2.361c3.037,-0 5.793,0.443 8.268,1.329c2.475,0.887 4.256,1.765 5.341,2.636l-8.018,16.607c-0.718,-0.864 -2.027,-1.747 -3.927,-2.65c-1.9,-0.903 -4.248,-1.354 -7.042,-1.354c-3.37,0 -6.184,0.928 -8.442,2.784c-2.258,1.856 -3.95,4.096 -5.076,6.721c-1.125,2.625 -1.688,5.091 -1.688,7.397l-0,34.236Z"/>
    <path d="M364.257,145.786l0,-11.492c-0.443,1.188 -1.654,2.858 -3.633,5.01c-1.979,2.152 -4.638,4.091 -7.976,5.817c-3.339,1.725 -7.268,2.588 -11.788,2.588c-6.253,0 -11.811,-1.512 -16.675,-4.536c-4.863,-3.025 -8.675,-7.158 -11.434,-12.402c-2.76,-5.243 -4.14,-11.189 -4.14,-17.837c-0,-6.648 1.38,-12.593 4.14,-17.836c2.759,-5.244 6.571,-9.391 11.434,-12.442c4.864,-3.051 10.422,-4.576 16.675,-4.576c4.397,-0 8.216,0.736 11.458,2.208c3.243,1.472 5.865,3.186 7.867,5.142c2.001,1.956 3.297,3.697 3.888,5.222l0,-10.649l20.191,-0l-0,65.783l-20.007,0Zm-35.663,-32.852c-0,3.675 0.828,6.914 2.484,9.718c1.655,2.804 3.84,4.981 6.553,6.532c2.713,1.551 5.659,2.326 8.838,2.326c3.383,-0 6.386,-0.787 9.008,-2.361c2.623,-1.573 4.688,-3.762 6.197,-6.566c1.508,-2.803 2.263,-6.02 2.263,-9.649c-0,-3.629 -0.755,-6.845 -2.263,-9.649c-1.509,-2.803 -3.574,-5.005 -6.197,-6.606c-2.622,-1.6 -5.625,-2.4 -9.008,-2.4c-3.179,-0 -6.125,0.789 -8.838,2.366c-2.713,1.578 -4.898,3.768 -6.553,6.572c-1.656,2.804 -2.484,6.043 -2.484,9.717Z"/>
    <path d="M395.39,80.003l11.851,-0l-0,-27.003l20.122,0l-0,27.003l15.612,-0l-0,16.937l-15.612,0l-0,23.757c-0,3.17 0.516,5.618 1.548,7.345c1.032,1.727 2.638,2.59 4.818,2.59c1.68,0 3.05,-0.335 4.11,-1.004c1.059,-0.67 1.696,-1.124 1.909,-1.361l7.231,14.581c-0.359,0.329 -1.4,0.891 -3.124,1.686c-1.723,0.795 -3.93,1.523 -6.621,2.184c-2.692,0.661 -5.728,0.991 -9.109,0.991c-6.022,0 -11.008,-1.745 -14.958,-5.235c-3.951,-3.49 -5.926,-8.922 -5.926,-16.296l-0,-29.238l-11.851,0l-0,-16.937Z"/>
    <path d="M488.595,72.242l-30.292,17.489l-0,-34.978l30.292,17.489Z"/>
    <path d="M458.303,145.786l-0,-43.814l20.306,-11.717l-0,55.531l-20.306,0Z"/>
    <path d="M539.169,78.08c4.499,-0 8.879,0.919 13.14,2.759c4.262,1.839 7.773,4.761 10.533,8.765c2.761,4.004 4.141,9.235 4.141,15.695l0,40.487l-20.42,0l0,-36.961c0,-5.39 -1.277,-9.392 -3.833,-12.007c-2.555,-2.615 -5.871,-3.923 -9.948,-3.923c-2.709,0 -5.276,0.738 -7.701,2.213c-2.426,1.474 -4.393,3.504 -5.901,6.089c-1.509,2.585 -2.263,5.547 -2.263,8.887l-0,35.702l-20.352,0l-0,-65.783l20.352,-0l-0,10.462c0.536,-1.8 1.852,-3.656 3.95,-5.568c2.098,-1.912 4.745,-3.526 7.94,-4.842c3.195,-1.317 6.649,-1.975 10.362,-1.975Z"/>
    <path d="M616.113,180.974c-4.832,0 -9.449,-0.456 -13.852,-1.369c-4.403,-0.914 -8.402,-2.337 -11.997,-4.272c-3.595,-1.934 -6.576,-4.428 -8.942,-7.481l12.28,-12.508c1.162,1.427 2.63,2.87 4.405,4.33c1.775,1.459 4.052,2.684 6.829,3.674c2.778,0.99 6.245,1.484 10.4,1.484c3.971,0 7.391,-0.76 10.261,-2.282c2.87,-1.521 5.082,-3.661 6.636,-6.42c1.554,-2.759 2.331,-6.002 2.331,-9.732l0,-1.826l20.007,-0l-0,3.045c-0,7.281 -1.706,13.4 -5.118,18.357c-3.412,4.956 -8.013,8.695 -13.802,11.217c-5.789,2.522 -12.269,3.783 -19.438,3.783Zm18.351,-35.188l0,-11.492c-0.443,1.188 -1.654,2.858 -3.633,5.01c-1.979,2.152 -4.638,4.091 -7.976,5.817c-3.339,1.725 -7.268,2.588 -11.788,2.588c-6.253,0 -11.811,-1.512 -16.675,-4.536c-4.863,-3.025 -8.675,-7.158 -11.435,-12.402c-2.759,-5.243 -4.139,-11.189 -4.139,-17.837c-0,-6.648 1.38,-12.593 4.139,-17.836c2.76,-5.244 6.572,-9.391 11.435,-12.442c4.864,-3.051 10.422,-4.576 16.675,-4.576c4.396,-0 8.216,0.736 11.458,2.208c3.243,1.472 5.865,3.186 7.867,5.142c2.001,1.956 3.297,3.697 3.888,5.222l0,-10.649l20.191,-0l-0,65.783l-20.007,0Zm-35.664,-32.852c0,3.675 0.828,6.914 2.484,9.718c1.656,2.804 3.841,4.981 6.554,6.532c2.713,1.551 5.659,2.326 8.838,2.326c3.383,-0 6.386,-0.787 9.008,-2.361c2.623,-1.573 4.688,-3.762 6.197,-6.566c1.508,-2.803 2.263,-6.02 2.263,-9.649c-0,-3.629 -0.755,-6.845 -2.263,-9.649c-1.509,-2.803 -3.574,-5.005 -6.197,-6.606c-2.622,-1.6 -5.625,-2.4 -9.008,-2.4c-3.179,-0 -6.125,0.789 -8.838,2.366c-2.713,1.578 -4.898,3.768 -6.554,6.572c-1.656,2.804 -2.484,6.043 -2.484,9.717Z"/>
  </g>
</svg>
