<svg xmlns="http://www.w3.org/2000/svg" xml:space="preserve" style="fill-rule:evenodd;clip-rule:evenodd;stroke-linejoin:round;stroke-miterlimit:2" viewBox="0 0 577 226"><path d="M0 0h577v226H0z" style="fill:none"/><clipPath id="a"><path d="M0 0h577v226H0z"/></clipPath><g clip-path="url(#a)"><path d="M11.924 84.378q-4.97 0-8.447-3.533T0 72.421q0-4.924 3.494-8.505 3.494-3.579 8.43-3.579 3.282 0 6.018 1.645a13 13 0 0 1 4.418 4.357q1.681 2.71 1.681 6.082 0 4.89-3.557 8.424t-8.56 3.533" style="fill:#B46DFA;fill-rule:nonzero"/><path d="M35.167 80.003h11.851V53H67.14v27.003h15.612V96.94H67.14v23.757q0 4.755 1.548 7.345t4.818 2.59q2.52 0 4.11-1.004 1.589-1.005 1.91-1.361l7.23 14.581q-.538.493-3.123 1.686-2.585 1.192-6.622 2.184-4.036.991-9.109.991-9.033 0-14.958-5.235t-5.926-16.296V96.94H35.167zM112.144 117.422q.214 4.478 2.386 8.012t6.272 5.533q4.1 2 9.94 1.999 5.208 0 9.165-1.286 3.958-1.287 6.7-3.161t4.114-3.619l8.43 12.438q-2.27 2.83-5.973 5.199-3.705 2.367-9.433 3.77-5.73 1.402-14.294 1.402-10.826 0-19.008-4.264t-12.762-12.251-4.58-19.043q0-9.615 4.095-17.348 4.096-7.731 11.899-12.228 7.803-4.495 18.79-4.495 10.335 0 17.93 3.97 7.593 3.97 11.747 11.57 4.153 7.599 4.153 18.585 0 .64-.04 2.617t-.2 2.6zm30.501-12.589q-.08-2.581-1.562-5.529t-4.625-5.035-8.28-2.087q-5.209 0-8.565 2.007t-5.021 4.915q-1.665 2.907-1.931 5.729zM194.35 145.786h-20.284V80.003h20.284v10.633h-.4q.61-1.934 3.121-4.884t6.992-5.311q4.48-2.361 10.872-2.361 4.555 0 8.268 1.329 3.712 1.33 5.341 2.636l-8.019 16.607q-1.076-1.296-3.927-2.65t-7.041-1.354q-5.057 0-8.442 2.784-3.387 2.784-5.076 6.721t-1.689 7.397zM286.131 145.786v-11.492q-.664 1.782-3.633 5.01t-7.977 5.817q-5.007 2.588-11.787 2.588-9.38 0-16.675-4.536-7.295-4.537-11.435-12.402t-4.139-17.837q0-9.972 4.139-17.836 4.14-7.866 11.435-12.442t16.675-4.576q6.595 0 11.458 2.208 4.865 2.208 7.866 5.142 3.003 2.934 3.889 5.222V80.003h20.191v65.783zm-35.664-32.852q0 5.512 2.484 9.718t6.554 6.532 8.838 2.326q5.074 0 9.008-2.361 3.933-2.36 6.197-6.566 2.262-4.205 2.263-9.649t-2.263-9.649q-2.264-4.204-6.197-6.606-3.934-2.4-9.008-2.4-4.768 0-8.838 2.366t-6.554 6.572-2.484 9.717M317.263 80.003h11.852V53h20.121v27.003h15.612V96.94h-15.612v23.757q0 4.755 1.548 7.345t4.819 2.59q2.52 0 4.109-1.004 1.59-1.005 1.91-1.361l7.23 14.581q-.538.493-3.123 1.686-2.584 1.192-6.621 2.184-4.038.991-9.109.991-9.033 0-14.959-5.235-5.925-5.235-5.925-16.296V96.94h-11.852zM380.177 145.786v-43.814l20.305-11.717v55.531zM1.873 145.786v-43.814l20.306-11.717v55.531zM461.043 78.08q6.749 0 13.14 2.759t10.533 8.765q4.14 6.005 4.141 15.695v40.487h-20.42v-36.961q0-8.085-3.833-12.007-3.832-3.923-9.949-3.923-4.062 0-7.7 2.213-3.639 2.211-5.902 6.089-2.262 3.877-2.263 8.887v35.702h-20.352V80.003h20.352v10.462q.804-2.7 3.951-5.568t7.939-4.842q4.793-1.975 10.363-1.975M537.986 180.974q-7.247 0-13.851-1.369-6.605-1.37-11.997-4.272-5.393-2.901-8.943-7.481l12.281-12.508q1.743 2.14 4.405 4.33t6.829 3.674q4.167 1.485 10.4 1.484 5.956 0 10.261-2.282t6.636-6.42 2.331-9.732v-1.826h20.006v3.045q0 10.921-5.118 18.357-5.118 7.434-13.801 11.217t-19.439 3.783m18.352-35.188v-11.492q-.664 1.782-3.633 5.01t-7.977 5.817q-5.007 2.588-11.787 2.588-9.38 0-16.675-4.536-7.295-4.537-11.435-12.402t-4.14-17.837 4.14-17.836q4.14-7.866 11.435-12.442t16.675-4.576q6.594 0 11.458 2.208 4.865 2.208 7.866 5.142 3.003 2.934 3.889 5.222V80.003h20.19v65.783zm-35.664-32.852q0 5.512 2.484 9.718t6.554 6.532 8.838 2.326q5.074 0 9.008-2.361 3.933-2.36 6.196-6.566t2.263-9.649-2.263-9.649q-2.262-4.204-6.196-6.606-3.934-2.4-9.008-2.4-4.769 0-8.838 2.366-4.07 2.367-6.554 6.572-2.484 4.206-2.484 9.717" style="fill-rule:nonzero"/><path d="m410.469 72.242-30.292 17.489V54.753z" style="fill:#B46DFA"/></g></svg>
